<svg width="61" height="61" viewBox="0 0 61 61" fill="none" xmlns="http://www.w3.org/2000/svg">
<path d="M23.87 3.85921C27.0705 -0.534776 33.6243 -0.534775 36.8247 3.85921C38.5948 6.28936 41.5762 7.52429 44.5462 7.05753C49.9162 6.21358 54.5504 10.8478 53.7065 16.2179C53.2397 19.1879 54.4747 22.1693 56.9048 23.9393C61.2988 27.1398 61.2988 33.6935 56.9048 36.894C54.4747 38.664 53.2397 41.6454 53.7065 44.6154C54.5504 49.9855 49.9162 54.6197 44.5462 53.7758C41.5762 53.309 38.5948 54.5439 36.8247 56.9741C33.6243 61.3681 27.0705 61.3681 23.87 56.9741C22.1 54.5439 19.1186 53.309 16.1486 53.7758C10.7785 54.6197 6.14431 49.9855 6.98826 44.6154C7.45502 41.6454 6.22009 38.664 3.78993 36.894C-0.604051 33.6935 -0.60405 27.1398 3.78994 23.9393C6.22009 22.1693 7.45502 19.1879 6.98826 16.2179C6.14431 10.8478 10.7785 6.21358 16.1486 7.05753C19.1186 7.52429 22.1 6.28936 23.87 3.85921Z" fill="#B3E6FF"/>
</svg>
