<svg width="200" height="200" viewBox="0 0 200 200" fill="none" xmlns="http://www.w3.org/2000/svg">
<path d="M159.604 4.11855C180.027 9.66188 186.437 26.2921 184.74 41.2591C183.059 56.0911 167.224 69.3048 144.005 68.4483C150.328 68.9417 170.224 76.2708 174.267 93.9207C178.457 112.214 169.086 123.511 157.509 129.398C139.343 138.635 119.282 138.609 102 137.5C112.621 143.411 127.831 154.491 129.754 171.527C131.676 188.564 117.185 204.787 87.859 198.69C58.5326 192.592 2.86733 167.5 17.685 124.409C23.6268 107.13 43.0916 100.614 54.3429 98.3554C59.2136 97.3776 73.7192 95.0294 94.1427 95.0294C69.6562 92.673 31.6167 80.6166 29.7299 53.4543C25.9563 -0.870216 123.061 -5.79979 159.604 4.11855Z" fill="#FFFFB3"/>
</svg>
